<?xml version="1.0" ?><svg fill="#f0eded" enable-background="new -206.502 109.422 480.715 348.267" id="Layer_1" version="1.1" viewBox="-206.502 109.422 480.715 348.267" xml:space="preserve" xmlns="http://www.w3.org/2000/svg" xmlns:xlink="http://www.w3.org/1999/xlink"><g id="Layer_1_1_"/><g><path d="M99.538,273.322c-1.46-0.875-2.937-1.73-4.424-2.591c-2.954-1.71-5.745-3.325-8.422-5.108   c-2.325-1.581-4.639-3.06-6.875-4.489c-2.56-1.636-4.977-3.182-7.276-4.787c-2.273-1.586-4.514-3.177-6.738-4.756   c-2.408-1.71-4.799-3.407-7.192-5.073c-1.978-1.375-3.908-2.828-5.953-4.365c-2.545-1.913-5.176-3.891-7.969-5.762l-0.469-0.314   c-4.549-3.047-9.253-6.198-14.078-9.202c-3.501-2.18-7.095-4.134-10.57-6.023c-0.398-0.217-0.796-0.433-1.195-0.65   c-0.581-1.08-1.286-1.948-1.958-2.62l-0.503-0.502l-0.568-0.426c-3.667-2.75-6.997-4.063-9.673-5.118   c-0.243-0.096-0.48-0.189-0.711-0.282v-5.177H-2.33c-0.778-0.636-1.766-1.336-2.994-1.951l-14.907-7.453l0.438,16.66   c0.111,4.213-0.013,8.396-0.145,12.824c-0.054,1.836-0.109,3.673-0.146,5.514c-0.093,4.577-0.366,9.099-0.655,13.887   c-0.093,1.535-0.186,3.069-0.271,4.604c-0.159,2.817-0.236,5.613-0.311,8.317c-0.099,3.584-0.193,6.97-0.46,10.314   c-0.254,3.173-0.643,6.349-1.055,9.711c-0.356,2.903-0.724,5.906-1.002,8.945c-0.279,3.043-0.574,6.088-0.868,9.136   c-0.311,3.219-0.622,6.44-0.917,9.67c-0.337,3.69-0.567,7.389-0.789,10.966c-0.159,2.56-0.324,5.203-0.524,7.772l-0.146,1.171   c-0.21,1.692-0.415,3.331-0.625,4.937l-14.711-14.711l9.792,36.198c1.141,4.217,3.857,6.132,5.935,6.994l3.836,1.594l7.47,7.469   l3.036-12.143c0.807-0.398,1.604-0.798,2.395-1.193c2.491-1.247,4.844-2.425,7.204-3.445c2.245-0.971,4.505-1.918,6.768-2.868   c3.182-1.335,6.472-2.716,9.736-4.165c2.386-1.06,4.769-2.065,7.292-3.132c2.996-1.266,6.093-2.574,9.169-3.968   c2.396-1.086,4.806-2.146,7.218-3.207c2.988-1.315,6.078-2.675,9.137-4.082c2.934-1.35,5.849-2.758,8.668-4.12   c2.488-1.202,4.977-2.405,7.48-3.568c2.504-1.162,5.053-2.24,7.751-3.381c2.816-1.19,5.729-2.422,8.629-3.775   c2.869-1.34,5.653-2.765,8.346-4.143c2.635-1.348,5.123-2.621,7.64-3.798c2.669-1.245,5.534-2.518,8.305-3.747   c2.741-1.217,5.576-2.475,8.293-3.739l13.924-6.479l-11.558-10.113C110.187,280.2,105.576,276.941,99.538,273.322z M86.617,289.534   c-2.845,1.329-5.611,2.745-8.286,4.114c-2.651,1.356-5.155,2.638-7.696,3.824c-2.565,1.197-5.184,2.304-7.956,3.476   c-2.736,1.157-5.566,2.354-8.388,3.663c-2.598,1.208-5.178,2.454-7.758,3.7c-2.735,1.322-5.563,2.688-8.323,3.958   c-2.907,1.337-5.921,2.663-8.835,3.945c-2.479,1.091-4.955,2.182-7.417,3.297c-2.842,1.287-5.818,2.545-8.697,3.762   c-2.494,1.053-5.072,2.143-7.625,3.275c-3.077,1.366-6.271,2.706-9.359,4.002c-1.323,0.556-2.645,1.11-3.964,1.669   c0.152-1.188,0.301-2.382,0.451-3.586l0.174-1.393l0.046-0.454c0.221-2.805,0.396-5.612,0.564-8.327   c0.224-3.594,0.435-6.987,0.745-10.389c0.292-3.193,0.6-6.382,0.907-9.566c0.297-3.079,0.594-6.155,0.876-9.23   c0.251-2.735,0.585-5.457,0.938-8.339c0.419-3.419,0.852-6.955,1.14-10.548c0.309-3.865,0.415-7.673,0.516-11.357   c0.074-2.681,0.144-5.213,0.287-7.746c0.084-1.507,0.176-3.015,0.267-4.522c0.288-4.772,0.586-9.708,0.688-14.683   c0.009-0.432,0.019-0.864,0.029-1.295c0.294,0.123,0.576,0.245,0.847,0.37c0.934,1.85,2.21,3.058,2.971,3.665l0.639,0.511   l0.714,0.399c1.635,0.916,3.274,1.807,4.906,2.694c3.37,1.832,6.552,3.563,9.554,5.431c4.542,2.828,9.104,5.884,13.516,8.84   l0.468,0.313c2.341,1.569,4.644,3.3,7.083,5.133c2.1,1.578,4.271,3.21,6.55,4.796c2.342,1.629,4.68,3.29,7.037,4.963   c2.268,1.611,4.553,3.232,6.87,4.85c2.631,1.836,5.334,3.564,7.948,5.236c2.12,1.355,4.313,2.757,6.481,4.23   c3.278,2.186,6.478,4.037,9.571,5.827c0.704,0.407,1.405,0.813,2.104,1.222C87.006,289.353,86.812,289.443,86.617,289.534z"/><path d="M274.172,290.609c-0.188-4.693-0.236-9.548-0.283-14.243c-0.014-1.417-0.028-2.835-0.046-4.251   c-0.042-3.358-0.054-6.716-0.066-10.074c-0.011-2.887-0.021-5.774-0.05-8.662c-0.039-3.907-0.247-7.767-0.448-11.499   c-0.139-2.581-0.27-5.019-0.35-7.474c-0.167-5.156-0.594-10.25-1.007-15.175c-0.111-1.327-0.223-2.654-0.329-3.984l-0.104-0.847   c-0.288-1.726-0.554-3.431-0.816-5.12c-0.643-4.121-1.307-8.382-2.24-12.607c-0.182-0.822-0.36-1.645-0.539-2.467   c-1.105-5.095-2.249-10.363-4.206-15.743l-0.196-0.54l-0.257-0.514c-0.526-1.052-1.102-1.962-1.678-2.747   c0.499-6.777-0.917-13.558-4.188-19.882c-3.228-6.239-8.313-12.161-15.114-17.602l-0.434-0.328   c-7.313-5.223-15.162-8.7-25.45-11.272l-0.501-0.125l-0.511-0.073c-3.489-0.499-6.972-1.007-10.454-1.516   c-3.504-0.512-7.007-1.023-10.518-1.525l-0.647-0.071c-2.58-0.198-5.172-0.499-7.916-0.817c-2.833-0.329-5.763-0.669-8.753-0.897   c-3.038-0.231-6.02-0.319-8.902-0.404c-2.735-0.08-5.319-0.156-7.855-0.346c-2.597-0.194-5.275-0.44-7.866-0.677   c-2.885-0.265-5.868-0.538-8.854-0.753c-2.559-0.185-5.108-0.443-7.809-0.716c-2.895-0.293-5.887-0.596-8.917-0.804   c-3.128-0.214-6.259-0.386-9.391-0.557c-2.461-0.135-4.923-0.269-7.381-0.425l-1.303-0.083c-5.159-0.33-10.318-0.659-15.479-0.959   c-3.159-0.183-6.234-0.188-9.209-0.193c-2.653-0.004-5.16-0.008-7.61-0.134l-0.279-0.01c-3.19-0.074-6.405-0.321-9.81-0.582   c-2.678-0.205-5.447-0.417-8.251-0.543c-2.881-0.128-5.75-0.188-8.524-0.246c-3.348-0.069-6.509-0.135-9.664-0.312   c-3.088-0.173-6.173-0.371-9.256-0.569c-3.002-0.192-6.003-0.385-9.006-0.555c-2.678-0.152-5.363-0.403-8.206-0.668   c-3.284-0.307-6.68-0.625-10.144-0.786l-3.015-0.142c-5.055-0.24-10.281-0.489-15.483-0.623c-4.032-0.102-8.017-0.009-11.87,0.081   c-2.248,0.053-4.497,0.106-6.749,0.119c-5.438,0.03-11.203,0.199-18.692,0.548l-0.285,0.018c-6.902,0.493-14.04,1.002-21.094,1.246   c-2.664,0.092-5.423,0.127-8.091,0.161c-4.508,0.058-9.17,0.117-13.784,0.446l-0.283,0.024c-2.842,0.284-5.512,0.681-8.094,1.065   c-2.236,0.333-4.348,0.647-6.412,0.864c-2.189,0.23-4.454,0.364-6.851,0.506c-2.45,0.146-4.984,0.295-7.642,0.562l-0.419,0.051   c-6.527,0.933-14.277,2.193-22.26,4.474l-0.709,0.231c-7.535,2.775-14.077,6.091-19.999,10.136   c-6.909,4.72-12.484,9.527-17.044,14.696c-5.357,6.072-9.685,12.375-12.862,18.731l-0.788,1.576l-0.202,1.75   c-0.436,3.775-0.624,7.467-0.805,11.038c-0.151,2.96-0.293,5.756-0.565,8.471l-0.433,4.299c-0.498,4.924-1.013,10.016-1.458,15.052   c-0.252,2.855-0.567,5.681-0.901,8.671c-0.385,3.455-0.784,7.027-1.075,10.637c-0.236,2.933-0.526,5.962-0.807,8.892   c-0.324,3.385-0.66,6.885-0.93,10.402l-0.019,0.313c-0.169,3.73-0.105,7.371-0.043,10.891c0.037,2.086,0.072,4.058,0.06,6.027   c-0.011,2.063-0.065,4.118-0.123,6.293c-0.089,3.402-0.181,6.919-0.1,10.501c0.08,3.507,0.259,6.998,0.432,10.375   c0.107,2.097,0.215,4.192,0.298,6.289c0.076,1.911,0.147,3.822,0.219,5.733c0.132,3.528,0.264,7.058,0.423,10.586   c-0.003,1.844-0.041,3.698-0.078,5.561c-0.069,3.467-0.141,7.051-0.009,10.734c0.15,4.193,0.58,8.296,0.995,12.263   c0.154,1.473,0.308,2.946,0.447,4.419c0.402,4.271,1.185,8.32,1.942,12.236c0.288,1.49,0.577,2.981,0.841,4.478   c0.266,1.508,0.496,3.023,0.727,4.541c0.558,3.656,1.132,7.428,2.167,11.318c0.083,0.694,0.196,1.271,0.279,1.687l0.011,0.057   c0.082,2.904,0.844,5.093,1.632,6.816c-0.001,0.221-0.002,0.441-0.002,0.665c0,3.297,1.458,5.701,2.534,7.264   c1.162,6.232,2.883,11.639,4.694,17.071l0.175,0.526l0.232,0.503c3.169,6.865,8.051,13.083,14.924,19.01   c5.263,4.538,11.552,8.25,19.793,11.683l1.105,0.46l4.858,0.773c4.446,0.713,9.044,1.451,13.682,2.034   c3.845,0.481,7.672,0.814,11.374,1.137c2.022,0.176,4.045,0.352,6.066,0.552c2.261,0.225,4.499,0.488,6.869,0.769   c3.403,0.401,6.922,0.817,10.494,1.1c3.562,0.281,7.125,0.471,10.571,0.654c2.268,0.121,4.537,0.241,6.803,0.389   c4.279,0.276,8.561,0.515,12.842,0.752l4.476,0.25c3.365,0.189,6.73,0.367,10.095,0.544c2.388,0.126,4.775,0.251,7.166,0.382   c3.62,0.196,7.239,0.413,10.856,0.63c2.113,0.127,4.227,0.253,6.34,0.376c3.284,0.19,6.666,0.451,9.937,0.704   c2.395,0.185,4.789,0.369,7.185,0.532c2.736,0.185,5.446,0.284,8.067,0.38c3.139,0.114,6.104,0.223,9.026,0.467l1.001,0.083   c5.25,0.438,10.679,0.89,15.957,1.446l0.522,0.055h0.525c3.034,0,6.097,0.16,9.34,0.33c3.008,0.158,6.119,0.321,9.288,0.353   l6.036,0.055c4.229,0.038,8.455,0.075,12.683,0.131c2.596,0.034,5.19,0.077,7.785,0.121c3.666,0.062,7.333,0.122,10.997,0.156   c1.571,0.016,3.147,0.021,4.719,0.021c2.465,0,4.918-0.014,7.32-0.028c2.271-0.013,4.541-0.026,6.813-0.027   c2.157,0.007,4.307,0.012,6.462,0.024c4.063,0.025,8.262,0.051,12.455-0.022c3.806-0.064,7.534-0.333,11.141-0.593   c2.702-0.194,5.255-0.379,7.812-0.48c2.507-0.102,5.08-0.07,7.808-0.04c3.622,0.041,7.367,0.086,11.247-0.182   c5.712-0.395,11.937-0.944,19.03-1.679c3.971-0.411,7.765-1.141,11.433-1.847c2.59-0.498,5.035-0.969,7.462-1.315   c2.098-0.301,4.205-0.563,6.317-0.827c4.011-0.5,8.154-1.017,12.371-1.795c7.219-0.925,13.024-2.46,18.249-4.823   c6.266-2.835,11.433-7.243,15.586-10.786c5.14-4.386,9.276-8.812,12.646-13.531l0.456-0.638l0.351-0.701   c0.464-0.929,0.775-1.698,1.002-2.26c0.032-0.079,0.062-0.155,0.092-0.231c3.346-3.35,4.326-6.735,5.042-9.209   c0.137-0.475,0.283-0.986,0.471-1.548l0.513-1.539v-0.905c0.051-0.208,0.106-0.45,0.162-0.723c0.989-2.305,1.608-4.711,1.608-7.983   c0-0.828,0.029-1.456,0.056-2.084c0.021-0.455,0.039-0.911,0.054-1.406c0.397-1.456,0.624-2.704,0.816-3.761   c0.19-1.05,0.329-1.809,0.604-2.635l0.301-0.899l0.125-0.939c0.854-6.395,1.418-12.531,1.726-18.759   c0.073-1.477,0.153-2.951,0.233-4.427c0.247-4.549,0.503-9.253,0.552-13.989c0.034-3.135,0.143-6.238,0.257-9.522   c0.097-2.754,0.195-5.603,0.245-8.449c0.098-5.604,0.228-11.569,0.639-17.486c0.393-5.638,0.799-11.467,1.719-16.99l0.169-1.015   L274.172,290.609z M252.374,308.254c-0.445,6.396-0.582,12.659-0.684,18.524c-0.047,2.673-0.144,5.433-0.236,8.101   c-0.114,3.26-0.231,6.63-0.268,10.01c-0.045,4.301-0.277,8.583-0.523,13.116c-0.082,1.506-0.164,3.014-0.239,4.522   c-0.267,5.396-0.746,10.726-1.464,16.264c-0.511,1.726-0.774,3.177-0.993,4.381c-0.19,1.05-0.329,1.809-0.604,2.635l-0.513,1.539   v1.623c0,0.828-0.029,1.456-0.056,2.084c-0.039,0.888-0.075,1.774-0.075,2.946c0,0.044,0,0.086,0,0.127   c-0.049,0.109-0.128,0.281-0.256,0.537l-1.056,2.111v1.642c-0.096,0.397-0.214,0.921-0.306,1.542   c-0.125,0.411-0.239,0.803-0.349,1.18c-0.086,0.298-0.193,0.67-0.278,0.938c-2.425,2.51-3.398,4.618-4.187,6.566   c-0.028,0.071-0.057,0.144-0.087,0.218c-2.339,3.139-5.158,6.079-8.807,9.192c-3.522,3.005-7.164,6.112-10.849,7.779   c-3.416,1.545-7.479,2.574-12.788,3.237l-0.603,0.094c-3.718,0.697-7.479,1.166-11.461,1.663c-2.233,0.278-4.461,0.557-6.677,0.874   c-2.899,0.415-5.698,0.954-8.404,1.475c-3.398,0.653-6.608,1.271-9.716,1.593c-6.865,0.711-12.866,1.241-18.347,1.619   c-3.076,0.213-6.268,0.174-9.639,0.137c-2.86-0.033-5.815-0.066-8.84,0.054c-2.875,0.115-5.708,0.319-8.449,0.517   c-3.49,0.251-6.788,0.489-10.046,0.545c-3.963,0.065-8.044,0.042-11.992,0.02c-2.096-0.013-4.19-0.025-6.284-0.025   c-2.4,0.006-4.818,0.015-7.226,0.028c-3.857,0.022-7.846,0.045-11.733,0.007c-3.618-0.033-7.235-0.094-10.853-0.154   c-2.62-0.044-5.24-0.088-7.859-0.122c-4.254-0.056-8.509-0.094-12.766-0.132l-6.017-0.056c-2.745-0.026-5.511-0.172-8.439-0.325   c-3.189-0.167-6.481-0.339-9.852-0.356c-5.327-0.554-10.688-1-15.878-1.433l-1-0.084c-3.387-0.282-6.727-0.404-9.957-0.522   c-2.582-0.094-5.021-0.183-7.447-0.348c-2.332-0.157-4.664-0.338-6.996-0.518c-3.365-0.26-6.844-0.529-10.319-0.73   c-2.1-0.122-4.201-0.247-6.301-0.373c-3.656-0.22-7.313-0.438-10.967-0.637c-2.399-0.131-4.8-0.257-7.2-0.384   c-3.339-0.176-6.679-0.352-10.018-0.54l-4.497-0.251c-4.219-0.233-8.439-0.468-12.657-0.741c-2.343-0.151-4.688-0.276-7.034-0.401   c-3.473-0.185-6.752-0.359-10.057-0.62c-3.186-0.252-6.362-0.627-9.725-1.024c-2.357-0.278-4.794-0.566-7.242-0.809   c-2.1-0.208-4.202-0.392-6.304-0.574c-3.678-0.32-7.152-0.622-10.618-1.057c-4.297-0.54-8.526-1.219-13.003-1.938l-2.509-0.4   c-5.69-2.452-9.954-4.981-13.356-7.914c-4.557-3.93-7.622-7.687-9.606-11.78c-1.937-5.841-3.166-10.021-3.976-14.723   c-0.263-2.242-1.177-4.008-2.017-5.318c0-0.121,0.001-0.243,0.001-0.365v-2.36l-1.415-2.821c-0.084-0.167-0.179-0.353-0.261-0.518   c-0.056-1.182-0.247-2.147-0.369-2.763l-0.003-0.938l-0.385-1.348c-0.865-3.025-1.37-6.341-1.905-9.85   c-0.254-1.672-0.51-3.341-0.803-5.002c-0.283-1.604-0.592-3.202-0.9-4.8c-0.697-3.604-1.355-7.01-1.666-10.313   c-0.146-1.543-0.307-3.084-0.468-4.625c-0.397-3.8-0.772-7.39-0.898-10.899c-0.112-3.124-0.049-6.278,0.018-9.617   c0.042-2.07,0.082-4.133,0.082-6.184l-0.01-0.454c-0.162-3.552-0.294-7.104-0.427-10.655c-0.072-1.928-0.144-3.854-0.22-5.781   c-0.086-2.174-0.198-4.347-0.309-6.52c-0.174-3.386-0.337-6.583-0.411-9.805c-0.07-3.092,0.012-6.216,0.098-9.522   c0.058-2.181,0.117-4.437,0.129-6.703c0.013-2.202-0.026-4.384-0.063-6.495c-0.058-3.302-0.113-6.424,0.019-9.476   c0.254-3.28,0.575-6.63,0.885-9.871c0.288-3.003,0.585-6.109,0.833-9.192c0.266-3.303,0.63-6.568,1.016-10.024   c0.332-2.972,0.675-6.045,0.947-9.129c0.434-4.911,0.942-9.938,1.434-14.801l0.435-4.318c0.321-3.202,0.482-6.376,0.639-9.447   c0.141-2.766,0.275-5.408,0.515-7.984c2.328-4.303,5.405-8.633,9.167-12.897c3.448-3.908,7.807-7.642,13.328-11.413   c4.457-3.044,9.458-5.583,15.279-7.753c6.626-1.864,13.311-2.955,19.021-3.773c2.185-0.213,4.346-0.341,6.63-0.477   c2.516-0.149,5.117-0.304,7.761-0.582c2.489-0.262,4.915-0.623,7.26-0.971c2.409-0.358,4.687-0.697,7.003-0.933   c3.985-0.279,8.108-0.332,12.47-0.387c2.775-0.035,5.644-0.072,8.526-0.171c7.378-0.254,14.661-0.773,21.743-1.279   c7.145-0.332,12.623-0.493,17.748-0.521c2.372-0.013,4.743-0.068,7.111-0.125c3.776-0.088,7.341-0.173,10.883-0.082   c4.984,0.128,10.101,0.372,15.049,0.606l3.035,0.144c2.997,0.139,6.015,0.421,9.21,0.72c2.897,0.271,5.893,0.551,8.937,0.723   c2.952,0.167,5.904,0.357,8.856,0.546c3.138,0.202,6.276,0.403,9.418,0.579c3.508,0.196,6.996,0.269,10.369,0.338   c2.778,0.058,5.404,0.112,8.044,0.23c2.485,0.112,4.978,0.303,7.616,0.505c3.472,0.266,7.061,0.541,10.735,0.631   c2.896,0.144,5.724,0.148,8.46,0.153c2.821,0.005,5.487,0.009,8.082,0.16c5.121,0.298,10.242,0.625,15.363,0.953l1.305,0.083   c2.521,0.16,5.042,0.298,7.563,0.436c3.039,0.166,6.078,0.332,9.114,0.54c2.706,0.186,5.409,0.459,8.27,0.749   c2.723,0.276,5.537,0.561,8.383,0.766c2.794,0.202,5.679,0.466,8.469,0.722c2.672,0.245,5.435,0.498,8.197,0.705   c2.989,0.224,5.924,0.31,8.763,0.393c2.774,0.082,5.396,0.159,7.967,0.354c2.598,0.199,5.207,0.501,7.97,0.822   c2.707,0.314,5.504,0.639,8.356,0.866c3.384,0.484,6.762,0.978,10.139,1.471c3.329,0.486,6.658,0.973,9.993,1.45   c7.483,1.913,12.897,4.283,17.97,7.864c4.428,3.577,7.754,7.377,9.629,11c1.989,3.846,2.533,7.807,1.618,11.772l-1.592,6.89   l5.178,3.294c0.051,0.047,0.103,0.094,0.154,0.142c0.091,0.083,0.198,0.18,0.293,0.268c1.29,3.808,2.168,7.852,3.093,12.113   c0.185,0.849,0.369,1.697,0.556,2.543c0.798,3.608,1.385,7.377,2.007,11.367c0.252,1.619,0.507,3.253,0.779,4.905   c0.099,1.214,0.2,2.426,0.302,3.637c0.409,4.89,0.796,9.508,0.946,14.155c0.088,2.668,0.23,5.327,0.369,7.898   c0.197,3.68,0.385,7.156,0.42,10.625c0.028,2.845,0.038,5.69,0.049,8.536c0.013,3.417,0.025,6.833,0.068,10.25   c0.018,1.399,0.031,2.8,0.045,4.201c0.045,4.515,0.092,9.172,0.26,13.83C253.192,296.502,252.776,302.471,252.374,308.254z"/></g></svg>
