<?xml version="1.0" ?><svg fill="#f0eded" enable-background="new -200.751 41.6 467.1 480.658" id="Layer_1" version="1.1" viewBox="-200.751 41.6 467.1 480.658" xml:space="preserve" xmlns="http://www.w3.org/2000/svg" xmlns:xlink="http://www.w3.org/1999/xlink"><g id="Layer_1_1_"/><g><path d="M46.243,166.693c-1.086-0.439-2.219-0.678-3.351-0.724c-5.731-1.709-11.971-2.809-18.989-3.352   c-1.644-0.127-3.304-0.239-4.972-0.351c-4.711-0.316-9.161-0.614-13.511-1.284c-5.451-0.84-10.55,2.893-11.401,8.341   c-0.24,1.539-0.489,3.084-0.737,4.631c-0.796,4.956-1.62,10.08-2.213,15.198c-0.446,3.852-0.646,7.636-0.838,11.294   c-0.153,2.918-0.298,5.674-0.559,8.395c-0.303,3.166-0.624,6.333-0.946,9.505c-0.335,3.304-0.671,6.613-0.988,9.932   c-0.417,4.374-0.93,8.691-1.473,13.262c-0.235,1.981-0.471,3.966-0.699,5.955c-0.504,4.402-1.197,8.79-1.932,13.435   c-0.29,1.835-0.581,3.676-0.873,5.605c-0.344,2.41-0.525,4.703-0.7,6.919c-0.346,4.383-0.644,8.168-2.097,11.558   c-1.324,3.09-1.007,6.638,0.843,9.444c1.851,2.807,4.987,4.495,8.349,4.495c4.616,0,9.185,0.305,14.021,0.627l0.172,0.012   c4.71,0.315,9.76,0.668,14.777,1.114c3.995,0.355,7.898,0.607,11.672,0.852l3.316,0.216c0.226,0.016,0.451,0.022,0.674,0.022   c5.075,0,9.397-3.835,9.936-8.954c0.372-3.534,0.854-7,1.365-10.668c0.372-2.674,0.757-5.438,1.098-8.248   c0.777-6.412,1.554-12.85,2.316-19.305c0.464-3.941,0.75-7.858,1.025-11.646c0.199-2.733,0.387-5.315,0.638-7.91   c0.238-2.472,0.578-4.963,0.938-7.6c0.532-3.889,1.081-7.911,1.319-12.089c0.368-6.493,0.748-13.207,0.741-19.994   c-0.008-7.489-0.239-14.092-0.708-20.188C52.168,171.412,49.76,168.118,46.243,166.693z M32.458,214.244   c-0.192,3.387-0.666,6.849-1.167,10.514c-0.371,2.714-0.754,5.521-1.031,8.388c-0.273,2.829-0.479,5.65-0.677,8.378   c-0.272,3.733-0.528,7.259-0.941,10.754c-0.759,6.433-1.534,12.85-2.309,19.241c-0.319,2.635-0.692,5.311-1.052,7.898   c-0.082,0.589-0.165,1.181-0.247,1.777c-1.705-0.123-3.405-0.255-5.136-0.409c-5.209-0.463-10.391-0.826-15.216-1.148l-0.173-0.011   c-0.959-0.064-1.925-0.128-2.898-0.191c0.161-1.514,0.277-2.985,0.389-4.406c0.158-1.995,0.306-3.879,0.549-5.581   c0.273-1.804,0.558-3.602,0.841-5.395c0.735-4.648,1.495-9.456,2.047-14.283c0.225-1.96,0.457-3.916,0.689-5.868   c0.533-4.483,1.083-9.119,1.522-13.724c0.313-3.278,0.645-6.547,0.976-9.812c0.326-3.21,0.651-6.416,0.958-9.62   c0.301-3.146,0.464-6.248,0.622-9.247c0.185-3.504,0.359-6.815,0.733-10.043c0.364-3.142,0.839-6.384,1.342-9.61   c1.791,0.14,3.563,0.259,5.315,0.376c1.599,0.107,3.189,0.214,4.766,0.336c3.847,0.298,7.352,0.791,10.585,1.493   c0.145,3.537,0.218,7.298,0.223,11.354C33.173,201.615,32.81,208.036,32.458,214.244z"/><path d="M151.986,171.986c-0.667-0.102-1.337-0.136-1.987-0.104c-5.347-1.497-11.188-2.424-17.755-2.824   c-2.535-0.154-5.068-0.27-7.586-0.384c-2.736-0.125-5.363-0.244-7.922-0.41c-3.198-0.869-6.646-0.26-8.979,1.151   c-3.402,2.058-5.248,5.93-4.762,9.818c-0.867,3.139-1.069,6.079-1.245,8.639c-0.108,1.576-0.21,3.064-0.451,4.507   c-0.022,0.134-0.042,0.27-0.059,0.404c-0.246,1.974-0.521,3.91-0.793,5.823c-0.449,3.165-0.914,6.438-1.229,9.723   c-0.522,5.431-0.956,10.522-1.326,15.563c-0.153,2.089-0.342,4.188-0.532,6.31c-0.259,2.875-0.525,5.846-0.721,8.929   c-0.333,3.22-0.509,6.355-0.68,9.389c-0.179,3.174-0.348,6.172-0.679,9.082c-0.552,4.858-1.213,9.825-1.853,14.628l-0.512,3.859   c-0.569,4.314-1.264,8.604-2,13.146c-0.105,0.651-0.211,1.304-0.316,1.958c-0.26,0.433-0.488,0.885-0.685,1.354   c-0.665,0.938-1.177,2.003-1.492,3.165c-1.248,4.597,0.919,9.435,5.179,11.564c2.44,1.22,4.64,1.404,6.438,1.157   c2.563,0.073,5.059,0.022,7.49-0.028c1.965-0.041,3.822-0.078,5.668-0.053c3.475,0.051,7.084,0.195,10.575,0.336   c1.523,0.062,3.046,0.123,4.565,0.177c4.404,0.158,9.506,0.38,14.318,1.021c0.448,0.06,0.894,0.089,1.334,0.089   c4.9,0,9.175-3.603,9.888-8.584c0.583-4.078,0.965-8.133,1.335-12.053c0.165-1.752,0.33-3.507,0.514-5.264   c0.223-2.139,0.484-4.276,0.746-6.415c0.428-3.498,0.869-7.114,1.159-10.795c0.455-5.764,0.829-11.56,1.191-17.164   c0.2-3.105,0.266-6.156,0.329-9.106c0.06-2.774,0.116-5.395,0.276-7.978c0.164-2.635,0.513-5.337,0.881-8.197   c0.362-2.806,0.736-5.707,0.949-8.698c0.017-0.237,0.025-0.474,0.025-0.711c0-2.712,0.185-5.506,0.38-8.465   c0.168-2.545,0.341-5.178,0.4-7.875c0.118-5.294,0.004-12.288-1.944-19.432C159.081,175.427,155.893,172.584,151.986,171.986z    M142.07,198.228c-0.051,2.261-0.202,4.564-0.363,7.002c-0.2,3.033-0.406,6.165-0.422,9.4c-0.178,2.319-0.486,4.71-0.812,7.234   c-0.394,3.057-0.802,6.218-1.006,9.512c-0.187,2.989-0.25,5.938-0.311,8.791c-0.062,2.864-0.119,5.569-0.293,8.245   c-0.357,5.536-0.727,11.259-1.17,16.882c-0.257,3.253-0.653,6.502-1.074,9.941c-0.275,2.255-0.55,4.508-0.786,6.763   c-0.19,1.824-0.362,3.646-0.533,5.466c-0.054,0.565-0.106,1.126-0.159,1.684c-2.123-0.119-4.168-0.199-6.089-0.268   c-1.49-0.054-2.982-0.114-4.476-0.174c-3.618-0.146-7.358-0.296-11.093-0.351c-0.517-0.007-1.029-0.011-1.538-0.011   c-0.21,0-0.42,0.001-0.629,0.002c0.508-3.188,1.002-6.422,1.427-9.643l0.509-3.834c0.652-4.896,1.326-9.959,1.899-15.007   c0.396-3.476,0.589-6.903,0.775-10.218c0.168-2.994,0.327-5.822,0.623-8.632c0.015-0.141,0.026-0.282,0.035-0.424   c0.181-2.887,0.44-5.79,0.693-8.597c0.2-2.231,0.397-4.437,0.56-6.634c0.358-4.89,0.779-9.833,1.287-15.114   c0.272-2.836,0.686-5.746,1.123-8.827c0.277-1.959,0.559-3.943,0.813-5.962c0.373-2.31,0.515-4.378,0.641-6.21   c0.017-0.236,0.032-0.463,0.048-0.682c0.669,0.031,1.336,0.062,1.999,0.092c2.416,0.11,4.847,0.22,7.278,0.368   c4.047,0.247,7.589,0.711,10.832,1.43C142.121,193.227,142.121,195.928,142.07,198.228z"/><path d="M266.259,338.798l-0.35-2.566c-0.692-5.066-1.409-10.306-1.761-15.204c-0.138-1.927-0.298-3.851-0.459-5.772   c-0.35-4.189-0.681-8.146-0.765-12.06c-0.066-3.069,0.128-6.25,0.335-9.618c0.167-2.712,0.339-5.516,0.378-8.391   c0.042-3.037-0.062-6.005-0.161-8.876c-0.112-3.245-0.219-6.31-0.119-9.293c0.098-2.91,0.325-5.843,0.565-8.949   c0.234-3.023,0.477-6.15,0.598-9.337c0.093-2.46,0.21-4.923,0.327-7.39c0.171-3.605,0.349-7.333,0.449-11.063   c0.003-0.09,0.004-0.18,0.004-0.271c0-1.778-0.004-3.552-0.007-5.324c-0.008-3.949-0.016-7.882,0.017-11.799   c0.023-2.703,0.086-5.401,0.148-8.096c0.068-2.982,0.141-6.066,0.158-9.141c0.028-5.117-0.016-10.281-0.059-15.275l-0.018-2.076   c-0.032-3.683-0.22-7.322-0.402-10.842c-0.114-2.198-0.229-4.4-0.303-6.605c-0.137-4.082-0.458-8.132-0.769-12.048   c-0.136-1.706-0.271-3.414-0.392-5.127c0.011-3.298,0.18-6.545,0.358-9.976c0.144-2.763,0.292-5.621,0.35-8.499   c0.021-1.055,0.047-2.111,0.073-3.168c0.132-5.375,0.268-10.934-0.186-16.824c-0.011-0.134-0.023-0.267-0.039-0.4   c-0.688-5.852-1.17-11.208-1.475-16.375c-0.135-2.292-0.303-4.582-0.471-6.871c-0.252-3.434-0.49-6.676-0.619-9.934   c-0.07-1.794-0.131-3.588-0.191-5.382c-0.13-3.855-0.264-7.842-0.499-11.826c-0.232-3.947-2.769-7.387-6.472-8.775   c-7.822-2.934-15.146-2.492-21.602-2.103c-2.076,0.125-4.038,0.243-5.906,0.243c-0.098,0-0.195,0.001-0.293,0.004   c-3.116,0.091-6.146,0.354-9.075,0.608c-2.81,0.244-5.464,0.474-8.063,0.548c-2.465,0.07-4.934,0.149-7.404,0.228   c-3.239,0.104-6.483,0.207-9.729,0.291c-2.867,0.074-5.714,0.079-8.728,0.085c-2.74,0.006-5.573,0.011-8.409,0.073   c-3.404,0.074-6.808,0.114-10.209,0.154c-2.304,0.027-4.605,0.054-6.905,0.092c-2.197,0.035-4.394,0.08-6.588,0.125   c-3.51,0.072-7.015,0.143-10.511,0.175c-2.844,0.026-5.719-0.064-8.753-0.159c-2.672-0.083-5.434-0.17-8.219-0.172   c-3.104-0.064-6.185-0.037-9.165-0.01c-3.173,0.028-6.168,0.056-9.167-0.02c-2.853-0.072-5.748-0.297-8.814-0.536   c-3.106-0.241-6.318-0.491-9.608-0.583c-3.272-0.091-6.494-0.041-9.61,0.007c-3.074,0.048-5.979,0.093-8.854,0.01   c-2.832-0.083-5.697-0.305-8.731-0.54c-3.142-0.244-6.392-0.495-9.714-0.592c-3.362-0.095-6.646-0.018-9.825,0.059   c-3.02,0.073-5.87,0.141-8.672,0.063c-3.292-0.091-6.599-0.127-9.797-0.163c-2.9-0.032-5.8-0.063-8.699-0.136   c-2.446-0.061-4.891-0.13-7.337-0.198c-3.721-0.104-7.443-0.208-11.167-0.288c-2.783-0.06-5.586-0.235-8.554-0.422   c-3.224-0.202-6.558-0.412-9.955-0.467c-3.421-0.056-6.832-0.021-10.13,0.015c-2.773,0.029-5.64,0.06-8.408,0.032   c-2.682-0.027-5.363-0.089-8.044-0.151c-3.426-0.08-6.968-0.162-10.504-0.17c-4.933-0.011-9.93,0.022-14.759,0.057l-3.804,0.025   c-2.705,0.019-5.409-0.045-8.269-0.111c-3.348-0.077-6.81-0.157-10.31-0.1c-3.53,0.058-7,0.272-10.355,0.48   c-2.847,0.176-5.536,0.342-8.221,0.417c-3.648,0.102-7.277,0.31-10.787,0.511c-2.566,0.147-5.22,0.299-7.79,0.403   c-4.368,0.177-8.771,0.43-13.029,0.676c-0.316,0.018-0.633,0.036-0.949,0.055c-1.271-0.427-2.646-0.651-4.083-0.651   c-4.459,0-8.38,2.953-9.611,7.239c-0.791,2.754-0.538,5.023,0.031,6.736c-1.533,4.383-3.22,8.733-4.865,12.974l-0.039,0.1   c-1.2,3.094-2.675,6.155-4.236,9.397c-1.199,2.489-2.439,5.063-3.589,7.736c-1.235,2.872-2.381,5.762-3.49,8.556   c-1.257,3.168-2.443,6.16-3.746,9.122c-2.876,6.542-5.375,12.362-7.639,17.794c-0.448,1.076-0.705,2.221-0.759,3.385   c-0.129,2.79-0.333,5.561-0.549,8.496c-0.229,3.105-0.465,6.316-0.605,9.557c-0.139,3.221-0.203,6.441-0.265,9.556   c-0.056,2.814-0.114,5.724-0.227,8.532c-0.134,3.295-0.238,6.592-0.341,9.89c-0.086,2.73-0.172,5.461-0.275,8.19   c-0.107,2.824-0.269,5.737-0.425,8.555c-0.172,3.101-0.35,6.307-0.464,9.514c-0.116,3.254-0.092,6.459-0.069,9.559   c0.021,2.961,0.042,5.757-0.052,8.532c-0.095,2.834-0.256,5.644-0.426,8.618c-0.176,3.074-0.358,6.252-0.46,9.445   c-0.091,2.888-0.226,5.775-0.36,8.662c-0.143,3.068-0.29,6.24-0.386,9.402c-0.086,2.859-0.197,5.717-0.307,8.575   c-0.122,3.164-0.244,6.328-0.335,9.494c-0.094,3.297-0.012,6.516,0.068,9.628c0.075,2.947,0.146,5.731,0.071,8.458   c-0.08,2.883-0.218,5.861-0.352,8.741c-0.141,3.037-0.288,6.178-0.372,9.319c-0.074,2.765-0.151,5.529-0.229,8.294   c-0.092,3.258-0.184,6.515-0.269,9.773c-0.075,2.872-0.221,5.723-0.376,8.739c-0.155,3.032-0.316,6.168-0.397,9.318   c-0.076,2.969-0.178,5.937-0.28,8.903c-0.104,3.052-0.209,6.104-0.286,9.155c-0.079,3.113-0.093,6.226-0.105,9.236   c-0.013,2.911-0.026,5.922-0.1,8.829c-0.076,2.999-0.188,5.997-0.3,8.995c-0.112,3.021-0.225,6.04-0.302,9.063   c-0.077,2.99-0.196,5.979-0.315,8.968c-0.121,3.026-0.241,6.053-0.32,9.08c-0.083,3.19-0.044,6.339-0.006,9.384   c0.038,3.009,0.073,5.852-0.003,8.674c-0.079,2.957-0.133,5.845-0.188,8.729c-0.056,2.985-0.112,5.967-0.197,9.024   c-0.08,2.882,1.087,5.657,3.203,7.616c2.115,1.958,4.973,2.904,7.84,2.606c3.838-0.404,7.65-0.505,11.686-0.612   c2.078-0.055,4.163-0.111,6.27-0.206c5.809-0.263,11.796-0.28,17.586-0.298l0.824-0.003c1.873-0.006,3.745-0.021,5.616-0.036   c4.281-0.035,8.708-0.07,12.994,0.017c3.14,0.062,6.272,0.05,9.303,0.038c3.283-0.012,6.384-0.024,9.508,0.049   c4.892,0.115,9.832,0.148,14.61,0.18l4.385,0.032c1.499,0.012,3.003,0.036,4.511,0.064c-0.069,1.463-0.06,2.816-0.052,4.002   l0.004,0.8c-0.187,2.973-0.232,5.917-0.276,8.768c-0.034,2.174-0.066,4.227-0.155,6.271c-0.201,4.579-0.346,10.613,0.317,16.682   c0.76,6.959,2.13,12.57,4.312,17.66c1.576,3.677,5.191,6.061,9.191,6.061c5.906,0,12.343,0.139,19.676,0.423   c4.671,0.183,9.368,0.266,13.911,0.345c2.088,0.037,4.176,0.073,6.264,0.119l3.273,0.079c3.255,0.082,6.574,0.165,9.934,0.165   c2.497,0,5.015-0.046,7.548-0.173c2.286-0.114,4.464-1.009,6.169-2.535c3.191-2.855,6.168-5.802,9.048-8.652   c1.617-1.6,3.226-3.193,4.856-4.75l1.211-1.156c4.171-3.98,8.484-8.098,12.628-12.427c1.101-1.151,2.212-2.295,3.326-3.442   c3.312-3.408,6.736-6.934,10.023-10.766c3.325-3.875,6.412-7.974,9.396-11.937c0.083-0.11,0.167-0.222,0.25-0.332   c3.977,0.267,8.063,0.533,12.123,0.713c2.85,0.126,5.719,0.389,8.756,0.666c3.33,0.304,6.774,0.619,10.297,0.753   c3.292,0.125,6.529,0.1,9.661,0.078c3.239-0.024,6.294-0.046,9.309,0.087c2.059,0.092,4.12,0.172,6.184,0.252   c4.16,0.162,8.462,0.329,12.642,0.595c4.563,0.288,9.087,0.729,13.877,1.195c1.582,0.154,3.168,0.309,4.759,0.457   c2.804,0.262,5.586-0.669,7.666-2.563c0.716-0.652,1.326-1.398,1.818-2.211c0.637-0.516,1.342-1.176,2.022-2.01   c0.377-0.229,0.999-0.581,1.98-1.072c0.859-0.43,1.651-0.979,2.353-1.635c2.613-2.439,5.083-4.914,7.472-7.307   c2.355-2.359,4.58-4.589,6.864-6.715c2.272-2.117,4.662-4.135,7.191-6.271c2.602-2.196,5.291-4.467,7.922-6.917   c2.478-2.308,4.945-4.648,7.433-7.008c2.358-2.237,4.735-4.492,7.158-6.753c0.084-0.078,0.166-0.158,0.248-0.239   c2.269-2.27,4.52-4.557,6.771-6.845c2.213-2.249,4.427-4.499,6.658-6.729c2.256-2.257,4.506-4.519,6.756-6.781   c2.133-2.144,4.266-4.287,6.403-6.426c4.27-3.571,8.465-7.318,12.815-11.446c2.481-2.356,4.752-4.771,6.947-7.105   c1.727-1.837,3.357-3.571,5.028-5.216c2.091-2.058,4.387-4.019,6.817-6.096c1.853-1.582,3.769-3.219,5.658-4.959   c4.021-3.702,8.212-7.252,12.455-10.552C265.299,345.843,266.735,342.326,266.259,338.798z M236.487,343.867   c-1.617,1.488-3.31,2.935-5.103,4.466c-2.588,2.211-5.265,4.497-7.858,7.051c-1.945,1.915-3.786,3.873-5.567,5.767   c-2.097,2.23-4.077,4.337-6.146,6.301c-4.152,3.941-8.144,7.5-12.202,10.882c-0.232,0.193-0.456,0.397-0.67,0.611   c-2.256,2.257-4.506,4.519-6.757,6.781c-2.237,2.249-4.475,4.499-6.719,6.742c-2.269,2.27-4.52,4.557-6.771,6.845   c-2.174,2.208-4.347,4.417-6.537,6.608c-2.418,2.258-4.793,4.511-7.149,6.746c-2.443,2.317-4.866,4.617-7.3,6.883   c-2.272,2.117-4.662,4.135-7.191,6.271c-2.602,2.196-5.291,4.467-7.92,6.915c-2.551,2.375-5.011,4.839-7.389,7.222   c-1.949,1.953-3.956,3.963-5.978,5.886c-2.729,1.455-4.639,2.787-6.085,4.232c-0.13,0.13-0.256,0.264-0.379,0.4   c-4.6-0.447-9.347-0.904-14.088-1.205c-4.423-0.279-8.848-0.452-13.127-0.618c-2.026-0.079-4.051-0.158-6.074-0.248   c-3.531-0.157-6.997-0.13-10.344-0.106c-3.04,0.024-5.912,0.046-8.754-0.064c-2.992-0.113-6.025-0.391-9.236-0.684   c-3.134-0.286-6.374-0.583-9.692-0.729c-4.218-0.187-8.384-0.467-12.795-0.764c-1.715-0.115-3.433-0.23-5.155-0.341   c-0.469-0.048-0.961-0.073-1.476-0.073c-5.145,0-9.403,3.891-9.942,8.925c-2.875,3.817-5.598,7.426-8.464,10.767   c-2.885,3.362-5.947,6.516-9.189,9.854c-1.149,1.183-2.296,2.363-3.431,3.55c-3.829,4.001-7.791,7.782-11.986,11.786l-1.217,1.162   c-1.715,1.639-3.409,3.313-5.109,4.996c-1.939,1.919-3.805,3.766-5.694,5.549c-4.041,0.08-8.146-0.022-12.437-0.131l-3.331-0.08   c-2.118-0.047-4.236-0.085-6.355-0.122c-4.437-0.077-9.024-0.158-13.483-0.332c-4.694-0.183-9.043-0.307-13.135-0.375   c-0.391-1.794-0.701-3.763-0.94-5.957c-0.513-4.693-0.398-9.525-0.219-13.633c0.102-2.326,0.138-4.619,0.172-6.836   c0.044-2.842,0.085-5.525,0.258-8.112c0.015-0.221,0.022-0.443,0.022-0.665l-0.006-1.24c-0.021-3.104,0.022-5.351,0.792-5.966   c3.354-2.684,4.62-7.209,3.145-11.242c-1.475-4.034-5.368-6.691-9.655-6.563c-3.975,0.105-7.96,0.026-12.178-0.056   c-2.142-0.042-4.278-0.083-6.4-0.101l-4.414-0.031c-4.695-0.031-9.549-0.063-14.27-0.175c-3.399-0.081-6.785-0.067-10.061-0.055   c-3.046,0.013-5.925,0.024-8.823-0.034c-4.566-0.091-9.137-0.056-13.556-0.02c-1.838,0.015-3.677,0.029-5.518,0.035l-0.822,0.003   c-5.997,0.018-12.198,0.036-18.43,0.317c-1.982,0.091-3.942,0.142-5.896,0.193c-0.655,0.018-1.313,0.035-1.975,0.054   c0.043-2.274,0.09-4.559,0.153-6.888c0.086-3.215,0.046-6.39,0.008-9.459c-0.037-2.986-0.072-5.808,0.001-8.613   c0.077-2.936,0.194-5.87,0.311-8.806c0.123-3.084,0.246-6.168,0.324-9.251c0.076-2.944,0.186-5.888,0.295-8.832   c0.114-3.077,0.229-6.153,0.307-9.23c0.08-3.118,0.093-6.236,0.106-9.252c0.013-2.906,0.026-5.912,0.099-8.814   c0.076-2.992,0.179-5.985,0.281-8.978c0.104-3.025,0.208-6.051,0.285-9.077c0.074-2.894,0.222-5.765,0.377-8.805   c0.155-3.009,0.314-6.119,0.396-9.244c0.085-3.243,0.176-6.486,0.268-9.73c0.078-2.774,0.156-5.549,0.23-8.323   c0.079-2.943,0.22-5.984,0.357-8.925c0.138-2.973,0.281-6.047,0.366-9.119c0.09-3.259,0.009-6.442-0.07-9.521   c-0.076-2.977-0.148-5.789-0.069-8.542c0.089-3.1,0.208-6.199,0.328-9.298c0.112-2.914,0.224-5.827,0.313-8.74   c0.091-3.001,0.234-6.091,0.373-9.08c0.139-2.985,0.277-5.969,0.372-8.956c0.093-2.938,0.26-5.85,0.437-8.934   c0.169-2.96,0.345-6.021,0.448-9.09c0.107-3.183,0.084-6.319,0.063-9.351c-0.022-3.021-0.043-5.875,0.057-8.7   c0.107-3.009,0.279-6.115,0.446-9.119c0.161-2.903,0.328-5.905,0.441-8.903c0.105-2.773,0.192-5.546,0.28-8.319   c0.102-3.237,0.204-6.474,0.335-9.71c0.122-3.014,0.182-6.028,0.24-8.943c0.063-3.137,0.121-6.101,0.25-9.089   c0.127-2.938,0.342-5.859,0.57-8.952c0.174-2.366,0.353-4.796,0.49-7.251c2.037-4.857,4.276-10.058,6.819-15.842   c1.45-3.297,2.761-6.602,4.029-9.798c1.105-2.787,2.149-5.419,3.272-8.029c0.98-2.279,2.075-4.552,3.234-6.957   c1.661-3.449,3.379-7.015,4.865-10.844l0.039-0.1c1.734-4.471,3.513-9.057,5.167-13.802c3.161-0.179,6.364-0.35,9.5-0.477   c2.738-0.11,5.478-0.267,8.127-0.419c3.52-0.202,6.845-0.393,10.199-0.486c3.024-0.084,6.011-0.269,8.9-0.447   c3.276-0.203,6.372-0.395,9.447-0.445c3.107-0.051,6.222,0.021,9.521,0.097c2.879,0.066,5.854,0.132,8.857,0.116l3.817-0.026   c4.782-0.033,9.727-0.066,14.571-0.056c3.329,0.008,6.766,0.087,10.089,0.165c2.768,0.064,5.537,0.128,8.308,0.156   c2.974,0.031,5.945-0.001,8.818-0.032c3.313-0.036,6.441-0.067,9.594-0.017c2.933,0.048,5.893,0.234,9.027,0.431   c3.04,0.191,6.184,0.388,9.381,0.456c3.678,0.079,7.355,0.182,11.032,0.285c2.466,0.069,4.931,0.138,7.397,0.2   c2.993,0.075,5.986,0.108,8.979,0.141c3.117,0.035,6.339,0.07,9.466,0.156c3.315,0.091,6.564,0.014,9.703-0.062   c3.054-0.073,5.938-0.142,8.768-0.061c2.838,0.083,5.708,0.305,8.747,0.541c3.138,0.243,6.381,0.494,9.697,0.59   c3.321,0.098,6.587,0.046,9.744-0.003c3.036-0.047,5.902-0.092,8.742-0.013c2.793,0.078,5.622,0.298,8.617,0.53   c3.187,0.248,6.482,0.503,9.855,0.589c3.345,0.086,6.654,0.056,9.857,0.026c2.995-0.028,5.824-0.054,8.654,0.008   c0.073,0.001,0.146,0.002,0.218,0.002c2.51,0,5.033,0.079,7.704,0.163c3.096,0.097,6.295,0.197,9.557,0.168   c3.573-0.032,7.154-0.105,10.739-0.178c2.166-0.044,4.334-0.088,6.504-0.124c2.271-0.037,4.543-0.063,6.816-0.09   c3.469-0.041,6.939-0.082,10.41-0.158c2.638-0.058,5.371-0.063,8.014-0.068c2.998-0.006,6.098-0.012,9.202-0.092   c3.287-0.085,6.571-0.189,9.852-0.294c2.448-0.078,4.894-0.156,7.335-0.226c3.18-0.09,6.252-0.357,9.224-0.615   c2.723-0.236,5.296-0.46,7.799-0.538c2.412-0.006,4.718-0.145,6.949-0.279c2.592-0.157,5.002-0.302,7.255-0.22   c0.044,1.219,0.085,2.433,0.126,3.634c0.062,1.831,0.123,3.662,0.195,5.494c0.142,3.598,0.404,7.164,0.657,10.613   c0.161,2.192,0.322,4.386,0.452,6.581c0.323,5.496,0.831,11.166,1.552,17.326c0.357,4.813,0.241,9.573,0.118,14.606   c-0.027,1.088-0.054,2.174-0.075,3.259c-0.051,2.558-0.185,5.133-0.327,7.859c-0.189,3.648-0.386,7.42-0.386,11.354   c0,0.229,0.008,0.459,0.023,0.688c0.131,1.899,0.281,3.792,0.432,5.683c0.307,3.862,0.596,7.511,0.718,11.137   c0.078,2.327,0.197,4.649,0.317,6.968c0.18,3.46,0.349,6.728,0.376,9.977l0.018,2.079c0.043,4.925,0.087,10.017,0.059,14.989   c-0.017,2.899-0.086,5.895-0.153,8.792c-0.064,2.791-0.129,5.585-0.153,8.39c-0.032,3.989-0.024,7.99-0.017,12.007   c0.003,1.713,0.007,3.429,0.007,5.148c-0.096,3.483-0.267,7.06-0.431,10.52c-0.12,2.533-0.24,5.062-0.336,7.584   c-0.105,2.79-0.322,5.587-0.552,8.547c-0.246,3.185-0.502,6.477-0.613,9.825c-0.123,3.665,0,7.219,0.12,10.656   c0.095,2.754,0.186,5.355,0.15,7.909c-0.032,2.399-0.183,4.847-0.342,7.438c-0.223,3.627-0.453,7.378-0.369,11.276   c0.099,4.531,0.471,8.985,0.83,13.293c0.154,1.841,0.309,3.685,0.44,5.535c0.323,4.494,0.884,9.001,1.477,13.413   C242.554,338.438,239.478,341.115,236.487,343.867z"/><path d="M228.413,147.101c0.011-3.871,0.022-7.874-0.134-11.912c-0.159-4.104-0.475-8.173-0.779-12.109   c-0.165-2.128-0.331-4.257-0.471-6.387c0.009-1.19,0.066-2.501,0.128-3.883c0.182-4.133,0.387-8.817-0.553-13.516   c-0.902-4.511-4.766-7.825-9.361-8.029c-3.741-0.167-7.424-0.253-10.984-0.338c-1.934-0.046-3.875-0.092-5.839-0.15   c-2.276-0.068-4.551-0.158-6.824-0.249c-3.309-0.131-6.729-0.267-10.148-0.333c-3.438-0.066-6.875-0.096-10.313-0.126   c-2.208-0.019-4.417-0.038-6.626-0.067c-2.671-0.035-5.342-0.104-8.013-0.172c-2.961-0.076-5.921-0.151-8.882-0.185   c-2.631-0.029-5.291-0.175-8.108-0.33c-2.83-0.156-5.758-0.316-8.742-0.356c-3.051-0.041-6.017,0.105-8.878,0.245   c-2.787,0.137-5.422,0.267-7.954,0.218c-2.56-0.05-5.218-0.294-8.033-0.554c-2.806-0.258-5.706-0.526-8.719-0.616   c-2.688-0.081-5.349-0.08-7.92-0.078c-3.036,0.005-5.903,0.003-8.739-0.121c-3.338-0.201-6.657-0.296-9.867-0.389   c-2.808-0.081-5.461-0.158-8.128-0.298c-2.4-0.127-4.8-0.268-7.199-0.409c-3.545-0.208-7.212-0.422-10.852-0.59   c-2.658-0.123-5.363-0.391-8.227-0.675c-3.16-0.314-6.428-0.638-9.796-0.774c-3.298-0.134-6.555-0.132-9.699-0.128   c-2.901,0.003-5.641,0.004-8.367-0.092c-2.159-0.077-4.318-0.157-6.477-0.237c-3.853-0.143-7.706-0.286-11.56-0.409   c-3.761-0.12-7.522-0.222-11.282-0.325c-2.25-0.062-4.501-0.123-6.751-0.188c-3.181-0.093-6.363-0.155-9.545-0.217   c-2.827-0.055-5.653-0.11-8.479-0.188c-3.09-0.084-6.182-0.137-9.273-0.19c-2.914-0.049-5.829-0.099-8.743-0.176   c-2.735-0.072-5.519-0.297-8.466-0.534c-3.075-0.248-6.254-0.504-9.519-0.592c-3.175-0.084-6.305-0.044-9.333-0.006   c-3.008,0.04-5.852,0.076-8.673-0.004c-2.774-0.078-5.509-0.14-8.24-0.201c-3.17-0.071-6.336-0.143-9.557-0.24   c-3.255-0.092-6.375,1.404-8.326,4.026s-2.498,6.031-1.464,9.131c1.224,3.673,1.868,7.551,2.459,12.242   c0.523,4.16,0.566,8.54,0.566,13.421c0,0.256,0.01,0.512,0.029,0.767l0.102,1.317c0.458,5.929,0.93,12.06,1.186,18.062   c0.128,3,0.353,5.97,0.57,8.843c0.28,3.7,0.544,7.195,0.61,10.658c0.061,3.243-0.067,6.534-0.204,10.019   c-0.122,3.117-0.248,6.34-0.232,9.608c0.017,3.512-0.027,7.106-0.069,10.582c-0.036,2.996-0.072,5.982-0.073,8.957   c-0.092,2.775-0.148,5.55-0.204,8.325c-0.061,3.026-0.123,6.154-0.237,9.187c-0.112,2.99-0.142,5.964-0.171,8.839   c-0.031,3.063-0.06,5.955-0.181,8.853c-0.12,2.907-0.33,5.802-0.552,8.868c-0.207,2.857-0.421,5.812-0.557,8.789   c-0.143,3.128-0.339,6.346-0.53,9.458c-0.167,2.732-0.334,5.463-0.471,8.197c-0.152,3.021-0.2,6.013-0.247,8.906   c-0.049,3.043-0.096,5.917-0.253,8.774c-0.165,2.988-0.404,5.949-0.658,9.085c-0.226,2.783-0.458,5.661-0.633,8.546   c-0.171,2.842-0.292,5.689-0.408,8.442c-0.135,3.181-0.262,6.185-0.461,9.214c-0.144,2.19-0.281,4.381-0.418,6.572   c-0.231,3.688-0.462,7.375-0.727,11.061c-0.225,3.121-0.52,6.34-0.804,9.452c-0.249,2.717-0.497,5.435-0.709,8.154   c-0.458,5.869-0.958,11.81-1.455,17.68c-0.236,2.789,0.707,5.549,2.601,7.61c1.894,2.061,4.564,3.233,7.363,3.233   c2.84,0,5.655-0.088,8.377-0.173c3.45-0.108,6.708-0.211,9.893-0.14c3.067,0.067,6.163,0.3,9.44,0.546   c2.853,0.214,5.803,0.436,8.805,0.546c3.203,0.117,6.368,0.309,9.719,0.512c2.802,0.169,5.7,0.345,8.596,0.47   c3.244,0.142,6.493,0.251,9.746,0.36c2.887,0.097,5.777,0.194,8.67,0.314c1.679,0.07,3.362,0.115,5.036,0.148   c-0.6,5.123-1.185,10.397-1.402,15.747c-0.043,1.063-0.097,2.127-0.15,3.189c-0.246,4.896-0.5,9.961,0.138,15.281   c0.69,5.752,2.178,11.779,4.424,17.927c1.174,4.502,5.221,8.526,11.78,8.526c5.194,0,9.463-3.96,9.953-9.025   c1.969-2.266,3.985-4.505,5.958-6.697l1.137-1.264c1.085-1.207,2.161-2.422,3.235-3.636c2.538-2.869,4.936-5.578,7.441-8.168   c3.028-3.129,6.118-6.136,9.388-9.319l1.982-1.932c2.107-2.056,4.32-4.048,6.662-6.156c1.698-1.529,3.454-3.11,5.191-4.739   c0.577-0.541,1.086-1.146,1.519-1.806c0.043-0.039,0.086-0.078,0.128-0.117c0.761-0.702,1.993-1.839,3.1-3.472   c0.332-0.259,0.657-0.541,0.974-0.848c0.364,0.022,0.727,0.045,1.091,0.067c2.815,0.172,5.63,0.343,8.45,0.488   c2.703,0.138,5.491,0.327,8.188,0.511c2.777,0.188,5.649,0.384,8.517,0.531c2.648,0.136,5.281,0.341,8.07,0.559   c2.805,0.219,5.705,0.445,8.626,0.595c3.016,0.156,5.974,0.173,8.834,0.19c2.753,0.016,5.353,0.031,7.909,0.163   c2.685,0.138,5.463,0.336,8.149,0.527c2.786,0.199,5.667,0.405,8.553,0.553c2.828,0.146,5.658,0.268,8.488,0.39   c2.745,0.118,5.489,0.236,8.233,0.377c2.889,0.147,5.746,0.231,8.509,0.312c2.788,0.082,5.422,0.159,8.103,0.297   c2.44,0.13,4.85-0.65,6.761-2.179c2.036-1.63,4.149-3.255,6.192-4.827c2.852-2.192,5.8-4.461,8.693-6.853   c4.346-3.592,8.969-7.491,14.549-12.27c2.863-2.453,5.568-4.995,8.185-7.453c2.009-1.888,3.906-3.671,5.859-5.406   c1.973-1.752,4.065-3.439,6.281-5.225c2.734-2.204,5.562-4.482,8.316-7.021c1.419-1.309,2.851-2.616,4.286-3.928   c3.196-2.92,6.502-5.938,9.736-9.032c0.247-0.236,0.481-0.485,0.703-0.745c1.578-1.854,3.272-4.986,2.511-9.517   c-0.019-0.253-0.047-0.504-0.085-0.753c0.569-5.431,1.138-11.004,1.593-16.614c0.189-2.32,0.402-4.639,0.615-6.958   c0.366-3.977,0.744-8.088,0.999-12.215c0.359-5.854,0.631-11.774,0.895-17.5l0.076-1.666c0.167-3.625,0.124-7.17,0.083-10.599   c-0.035-2.976-0.069-5.786,0.028-8.555c0.099-2.817,0.237-5.633,0.376-8.448c0.17-3.467,0.346-7.052,0.448-10.634   c0.083-2.928,0.184-5.855,0.285-8.782c0.115-3.356,0.231-6.713,0.32-10.07c0.254-4.006,0.35-7.982,0.443-11.829   c0.056-2.279,0.11-4.558,0.198-6.835c0.236-6.089,0.314-12.212,0.392-18.133l0.009-0.725c0.029-2.201,0.085-4.4,0.141-6.6   c0.102-3.989,0.206-8.115,0.151-12.27C228.399,151.744,228.406,149.423,228.413,147.101z M208.285,165.827   c-0.059,2.282-0.116,4.563-0.146,6.847l-0.01,0.728c-0.074,5.794-0.151,11.786-0.377,17.616c-0.093,2.374-0.15,4.75-0.208,7.125   c-0.094,3.882-0.183,7.549-0.42,11.22c-0.008,0.126-0.014,0.253-0.017,0.38c-0.089,3.366-0.205,6.73-0.321,10.094   c-0.103,2.968-0.205,5.937-0.289,8.904c-0.096,3.374-0.267,6.854-0.433,10.22c-0.143,2.909-0.285,5.817-0.388,8.728   c-0.113,3.24-0.075,6.421-0.038,9.497c0.039,3.288,0.076,6.394-0.063,9.438l-0.077,1.667c-0.26,5.65-0.527,11.492-0.878,17.189   c-0.235,3.823-0.583,7.606-0.952,11.612c-0.219,2.389-0.438,4.777-0.633,7.169c-0.481,5.927-1.104,11.912-1.716,17.724   c-2.095,1.953-4.22,3.894-6.297,5.791c-1.459,1.332-2.914,2.661-4.355,3.99c-2.265,2.088-4.715,4.063-7.309,6.152   c-2.303,1.856-4.685,3.775-7.016,5.848c-2.161,1.919-4.25,3.883-6.271,5.781c-2.563,2.409-4.984,4.685-7.498,6.838   c-5.489,4.701-10.027,8.528-14.282,12.045c-2.623,2.169-5.305,4.231-8.144,6.415c-1.157,0.89-2.335,1.796-3.523,2.721   c-1.607-0.059-3.195-0.104-4.755-0.15c-2.777-0.081-5.4-0.158-8.071-0.295c-2.797-0.143-5.596-0.264-8.395-0.384   c-2.774-0.119-5.55-0.239-8.323-0.382c-2.687-0.138-5.466-0.336-8.153-0.528c-2.784-0.198-5.664-0.404-8.549-0.552   c-3.01-0.155-5.962-0.173-8.816-0.189c-2.758-0.017-5.362-0.031-7.927-0.164c-2.656-0.136-5.298-0.342-8.095-0.561   c-2.796-0.218-5.688-0.443-8.604-0.594c-2.701-0.138-5.488-0.327-8.184-0.511c-2.778-0.188-5.652-0.384-8.521-0.531   c-2.752-0.141-5.503-0.309-8.254-0.477c-2.723-0.167-5.445-0.333-8.169-0.475c-0.263-0.018-0.528-0.027-0.794-0.027   c-4.42,0-8.184,2.871-9.5,6.868c-0.899,1.052-1.571,2.279-1.972,3.604c-0.629,0.596-1.402,1.38-2.142,2.384   c-1.309,1.211-2.637,2.407-4.028,3.66c-2.384,2.146-4.85,4.367-7.245,6.702l-1.967,1.916c-3.232,3.146-6.574,6.399-9.811,9.744   c-2.815,2.91-5.475,5.915-8.046,8.821c-0.624,0.705-1.249,1.41-1.875,2.114c-0.107-2.822,0.043-5.832,0.201-8.97   c0.057-1.127,0.113-2.253,0.159-3.379c0.199-4.881,0.762-9.807,1.373-14.999c0.097-0.305,0.192-0.61,0.289-0.917   c0.636-2.033,1.139-3.64,1.958-4.868c2.014-3.021,2.232-6.895,0.571-10.122c-1.661-3.229-4.94-5.303-8.569-5.42   c-2.911-0.094-5.828-0.127-8.648-0.158c-3.385-0.038-6.582-0.074-9.758-0.207c-2.947-0.123-5.89-0.222-8.83-0.321   c-3.188-0.106-6.372-0.214-9.552-0.352c-2.725-0.118-5.536-0.288-8.253-0.453c-3.321-0.201-6.756-0.409-10.195-0.534   c-2.616-0.097-5.25-0.294-8.04-0.504c-3.393-0.255-6.9-0.518-10.496-0.598c-2.635-0.055-5.251-0.018-7.819,0.052   c0.184-2.242,0.363-4.481,0.538-6.71c0.205-2.632,0.446-5.26,0.687-7.888c0.294-3.208,0.597-6.524,0.836-9.841   c0.27-3.747,0.504-7.496,0.74-11.245c0.136-2.169,0.271-4.339,0.415-6.508c0.215-3.264,0.353-6.526,0.486-9.683   c0.113-2.665,0.229-5.421,0.39-8.083c0.162-2.68,0.376-5.331,0.604-8.137c0.253-3.124,0.515-6.354,0.693-9.601   c0.179-3.243,0.23-6.449,0.28-9.55c0.046-2.852,0.09-5.545,0.224-8.228c0.133-2.66,0.296-5.319,0.459-7.977   c0.195-3.188,0.396-6.485,0.546-9.769c0.123-2.708,0.318-5.401,0.525-8.253c0.223-3.083,0.455-6.271,0.587-9.487   c0.133-3.208,0.166-6.396,0.197-9.477c0.029-2.867,0.056-5.576,0.158-8.292c0.12-3.208,0.184-6.425,0.247-9.537   c0.055-2.739,0.109-5.478,0.202-8.217c0.004-0.113,0.006-0.226,0.006-0.339c0-2.951,0.036-5.913,0.072-8.884   c0.043-3.558,0.087-7.237,0.07-10.917c-0.014-2.83,0.099-5.697,0.217-8.732c0.142-3.617,0.288-7.356,0.215-11.18   c-0.076-4.029-0.375-7.974-0.664-11.788c-0.215-2.837-0.417-5.516-0.532-8.186c-0.27-6.345-0.756-12.65-1.227-18.748l-0.072-0.932   c-0.003-5.229-0.071-10.356-0.723-15.533c-0.107-0.855-0.221-1.721-0.344-2.597c1.679,0.039,3.365,0.081,5.066,0.128   c3.23,0.091,6.414,0.051,9.492,0.011c2.963-0.038,5.762-0.075,8.541,0.001c2.729,0.073,5.507,0.297,8.448,0.534   c3.082,0.249,6.269,0.505,9.542,0.592c2.978,0.079,5.957,0.13,8.935,0.18c3.022,0.051,6.045,0.103,9.066,0.185   c2.878,0.079,5.756,0.135,8.635,0.191c3.119,0.061,6.238,0.122,9.357,0.212c2.261,0.066,4.522,0.127,6.784,0.189   c3.731,0.102,7.462,0.204,11.192,0.323c3.818,0.122,7.636,0.264,11.454,0.405c2.17,0.081,4.34,0.161,6.51,0.238   c3.089,0.11,6.144,0.107,9.093,0.105c3.086-0.003,5.99-0.005,8.876,0.111c2.783,0.112,5.621,0.394,8.625,0.692   c2.997,0.298,6.097,0.605,9.284,0.752c3.514,0.162,7.116,0.373,10.601,0.577c2.438,0.143,4.875,0.286,7.314,0.415   c2.906,0.154,5.804,0.237,8.607,0.318c3.222,0.093,6.266,0.18,9.315,0.365c0.054,0.003,0.107,0.006,0.161,0.009   c3.312,0.147,6.562,0.147,9.716,0.144c2.535,0.001,4.927-0.002,7.312,0.069c2.394,0.071,4.865,0.299,7.482,0.54   c3.046,0.281,6.195,0.571,9.48,0.634c3.222,0.063,6.324-0.091,9.324-0.238c2.67-0.132,5.199-0.252,7.627-0.223   c2.57,0.035,5.166,0.177,7.914,0.328c2.907,0.16,5.913,0.324,8.979,0.359c2.865,0.032,5.73,0.105,8.595,0.179   c2.754,0.071,5.508,0.141,8.262,0.177c2.239,0.03,4.479,0.049,6.717,0.068c3.366,0.029,6.732,0.058,10.098,0.123   c3.216,0.063,6.534,0.194,9.743,0.321c2.34,0.093,4.679,0.186,7.02,0.255c2.006,0.06,3.988,0.107,5.963,0.154   c0.481,0.011,0.959,0.022,1.434,0.034c-0.015,0.326-0.028,0.651-0.043,0.976c-0.072,1.651-0.147,3.359-0.147,5.069   c0,0.214,0.007,0.428,0.021,0.642c0.15,2.33,0.33,4.657,0.511,6.984c0.304,3.919,0.591,7.62,0.735,11.336   c0.14,3.622,0.129,7.246,0.118,11.082c-0.007,2.428-0.014,4.856,0.019,7.282C208.48,158.096,208.386,161.852,208.285,165.827z"/></g></svg>
